<?xml version="1.0" standalone="no"?>
<!DOCTYPE svg PUBLIC "-//W3C//DTD SVG 20010904//EN"
 "http://www.w3.org/TR/2001/REC-SVG-20010904/DTD/svg10.dtd">
<svg version="1.0" xmlns="http://www.w3.org/2000/svg"
 width="1000.000000pt" height="1000.000000pt" viewBox="0 0 1000.000000 1000.000000"
 preserveAspectRatio="xMidYMid meet">

<g transform="translate(0.000000,1000.000000) scale(0.100000,-0.100000)"
fill="#000000" stroke="none">
<path d="M5220 7931 c0 -100 -2 -181 -6 -181 -3 0 -52 27 -110 61 l-105 60
-905 -523 -904 -523 0 -222 c0 -123 2 -223 4 -223 2 0 356 180 787 400 431
220 790 400 797 400 10 0 12 -118 10 -576 l-3 -576 -438 -232 c-241 -129 -440
-235 -442 -238 -2 -2 194 -109 435 -238 355 -188 440 -237 441 -254 1 -12 5
-189 8 -395 l6 -374 102 -59 102 -60 53 29 c48 26 1409 812 1656 955 l102 60
0 219 c0 120 -2 219 -4 219 -2 0 -352 -177 -778 -394 -425 -217 -781 -398
-790 -401 -17 -7 -18 25 -18 571 l0 579 488 259 c268 142 720 383 1005 534
285 152 514 279 510 282 -7 6 -1970 1008 -1995 1018 -4 2 -8 -78 -8 -177z"/>
<path d="M3608 3269 c-12 -7 -18 -22 -18 -49 0 -32 7 -48 36 -80 23 -25 34
-47 32 -61 -4 -30 -28 -36 -35 -10 -3 12 -13 21 -25 21 -15 0 -18 -5 -13 -22
15 -50 72 -64 99 -26 25 35 19 63 -25 114 -25 29 -39 54 -37 68 4 28 34 33 43
7 7 -23 35 -29 35 -8 0 43 -53 69 -92 46z"/>
<path d="M3880 3150 c0 -109 2 -130 15 -130 13 0 15 21 15 130 0 109 -2 130
-15 130 -13 0 -15 -21 -15 -130z"/>
<path d="M4100 3150 c0 -109 2 -130 15 -130 12 0 15 17 16 88 l1 87 16 -87
c11 -70 18 -88 31 -88 14 0 20 18 32 93 l14 92 3 -92 c2 -74 6 -93 17 -93 12
0 15 23 15 130 l0 130 -24 0 c-23 0 -25 -5 -37 -89 -7 -50 -16 -88 -19 -86 -4
2 -12 43 -19 90 -12 80 -15 85 -37 85 l-24 0 0 -130z"/>
<path d="M4450 3151 c0 -110 2 -131 15 -131 11 0 15 12 15 50 0 46 2 50 24 50
38 0 56 25 56 79 0 57 -12 71 -70 78 l-40 6 0 -132z m69 85 c7 -8 11 -30 9
-48 -2 -25 -8 -34 -25 -36 -21 -3 -23 1 -23 41 0 57 14 73 39 43z"/>
<path d="M4740 3150 l0 -130 50 0 c38 0 50 4 50 15 0 10 -11 15 -35 15 l-35 0
0 115 c0 96 -3 115 -15 115 -13 0 -15 -21 -15 -130z"/>
<path d="M5010 3150 l0 -130 50 0 c37 0 50 4 50 14 0 9 -12 16 -32 18 -31 3
-33 5 -33 43 0 36 3 40 28 43 38 5 36 32 -4 32 -29 0 -30 2 -27 38 3 34 6 37
36 40 20 2 32 9 32 18 0 10 -13 14 -50 14 l-50 0 0 -130z"/>
<path d="M5307 3262 c-28 -31 -21 -67 24 -118 25 -29 39 -54 37 -68 -4 -29
-38 -34 -45 -7 -7 26 -33 28 -33 3 0 -23 30 -52 54 -52 38 0 56 19 56 60 0 31
-8 48 -40 85 -44 51 -46 57 -25 75 16 14 35 6 35 -16 0 -8 7 -14 15 -14 20 0
19 34 -1 54 -21 21 -57 20 -77 -2z"/>
<path d="M5570 3265 c0 -8 9 -15 20 -15 19 0 20 -7 20 -115 0 -108 1 -115 20
-115 19 0 20 7 20 115 0 108 1 115 20 115 11 0 20 7 20 15 0 12 -13 15 -60 15
-47 0 -60 -3 -60 -15z"/>
<path d="M5880 3260 c-17 -17 -20 -33 -20 -108 0 -102 14 -132 60 -132 46 0
60 30 60 132 0 75 -3 91 -20 108 -11 11 -29 20 -40 20 -11 0 -29 -9 -40 -20z
m60 -29 c15 -29 13 -144 -3 -166 -26 -34 -37 -8 -37 84 0 48 3 91 7 94 11 12
22 8 33 -12z"/>
<path d="M6176 3264 c-23 -22 -23 -206 0 -228 36 -36 94 -9 94 45 0 38 -27 39
-32 2 -2 -20 -9 -28 -23 -28 -19 0 -20 7 -20 95 0 88 1 95 20 95 13 0 21 -8
23 -22 4 -31 32 -30 32 0 0 48 -61 74 -94 41z"/>
<path d="M6450 3150 c0 -123 1 -130 20 -130 17 0 20 7 20 44 0 63 16 65 37 6
13 -36 23 -50 36 -50 14 0 17 5 12 18 -4 9 -17 43 -28 74 l-22 57 28 55 c38
78 8 77 -32 -1 l-30 -58 -1 58 c0 50 -2 57 -20 57 -19 0 -20 -7 -20 -130z"/>
</g>
</svg>
